HIERARCHY
ROOT base
{
	OFFSET 0.0 0.0 0.0
	CHANNELS 6 Xposition Yposition Zposition Zrotation Yrotation Xrotation
	JOINT root
	{
		OFFSET 0 0 0
		CHANNELS 6 Xposition Yposition Zposition Zrotation Yrotation Xrotation
		JOINT chest
		{
			OFFSET 0 4.72302 0
			CHANNELS 3 Zrotation Yrotation Xrotation
			JOINT neck
			{
				OFFSET 0 4.47788 0
				CHANNELS 3 Zrotation Yrotation Xrotation
				End Site
				{
					OFFSET 0.0 0.0 0.0
				}
			}
			JOINT right_shoulder
			{
				OFFSET -0.481 4.87 3.6622
				CHANNELS 3 Zrotation Yrotation Xrotation
				JOINT right_elbow
				{
					OFFSET 0 -5.49576 0
					CHANNELS 3 Zrotation Yrotation Xrotation
					JOINT right_wrist
					{
						OFFSET 0 -5.17894 0
						CHANNELS 3 Zrotation Yrotation Xrotation
						End Site
						{
							OFFSET 0.0 0.0 0.0
						}
					}
				}
			}
			JOINT left_shoulder
			{
				OFFSET -0.481 4.87 -3.6622
				CHANNELS 3 Zrotation Yrotation Xrotation
				JOINT left_elbow
				{
					OFFSET 0 -5.49576 0
					CHANNELS 3 Zrotation Yrotation Xrotation
					JOINT left_wrist
					{
						OFFSET 0 -5.17894 0
						CHANNELS 3 Zrotation Yrotation Xrotation
						End Site
						{
							OFFSET 0.0 0.0 0.0
						}
					}
				}
			}
		}
		JOINT right_hip
		{
			OFFSET 0 0 1.69774
			CHANNELS 3 Zrotation Yrotation Xrotation
			JOINT right_knee
			{
				OFFSET 0 -8.43092 0
				CHANNELS 3 Zrotation Yrotation Xrotation
				JOINT right_ankle
				{
					OFFSET 0 -8.1974 0
					CHANNELS 3 Zrotation Yrotation Xrotation
					End Site
					{
						OFFSET 0.0 0.0 0.0
					}
				}
			}
		}
		JOINT left_hip
		{
			OFFSET 0 0 -1.69774
			CHANNELS 3 Zrotation Yrotation Xrotation
			JOINT left_knee
			{
				OFFSET 0 -8.43092 0
				CHANNELS 3 Zrotation Yrotation Xrotation
				JOINT left_ankle
				{
					OFFSET 0 -8.1974 0
					CHANNELS 3 Zrotation Yrotation Xrotation
					End Site
					{
						OFFSET 0.0 0.0 0.0
					}
				}
			}
		}
	}
	JOINT red_arrow
	{
		OFFSET 0 0 0
		CHANNELS 3 Zrotation Yrotation Xrotation
		End Site
		{
			OFFSET 0.0 0.0 0.0
		}
	}
	JOINT blue_arrow
	{
		OFFSET 0 0 0
		CHANNELS 3 Zrotation Yrotation Xrotation
		End Site
		{
			OFFSET 0.0 0.0 0.0
		}
	}
}
MOTION
Frames: 9
Frame Time: 0.0333333333333333
0 18.08466 0 0 0 0 0 0 0 0 -90 0 0 0 0 0 0 0 0 0 -90 0 0 0 0 0 0 0 0 90 0 0 0 0 0 0 0 0 0 0 0 0 0 0 0 0 0 0 0 0 0 0 0 0 0 0 0 0 0 0
0.762581188976765 0 0.0822912463918328 0 0.1943112712177 0 0 16.9784615397453 0 -6.38671735774361 -4.96961668978674E-17 0.510230610196062 -0.593536326370098 -5.13360697584693 0.735035892689428 0.134533273820916 0.631941054925805 -0.8449256375725 -14.1585267331306 10.7558791509745 -8.1029347396065 9.32110281125575 0 0 0 0 0 8.82092764619135 -17.3354971509209 20.1681726855782 32.7547834667269 0 0 0 0 0 27.2459630904018 -5.76521781543412 2.97112075892805 -12.5597864166054 0 0 -5.88118159840446 3.30142194473522 -5.28856136930765 -7.91225390060676 10.4442810136535 -1.14178710865314 -23.0150856819977 0 0 13.3037109556101 -8.07908221226404 11.673211005882 0 0 0 0 0 0
1.36449031531811 0 0.211962242797017 0 0.0953034382162095 0 0 16.9821272611618 0 -7.91487349559547 -1.86324122600343 -1.54763629839585 -1.10016292763986 -4.20217981598288 1.04698432907441 -0.406717308903344 1.52924188884994 -1.8231848191769 -12.6898428865798 11.5614405701411 -7.89087674956452 9.37435096602517 0 0 0 0 0 8.1046789787034 -16.7569113470678 19.971262908211 32.0462128120406 0 0 0 0 0 26.9814334153896 -4.31692403791989 6.1932223008379 -12.9860610840268 0 0 -6.48086818614254 2.5154769725083 -5.47587975712593 -4.14130707587067 11.3050205322103 1.58927348967186 -24.8617895411034 0 0 12.0514211739516 -8.64664041617778 10.9700708570197 0 0 0 0 0 0
1.99843019545078 0 0.314890008419752 0 -0.074954538205947 0 0 17.0442665100098 0 -8.76624971330568 -3.19719134763416 -3.39278855782952 -1.07653696955201 -4.49896122996914 0.972484743390024 -1.20261871258123 1.62449016416279 -2.65299585818977 -11.977406446535 12.5790393391443 -7.92041582861354 9.74167683204116 0 0 0 0 0 6.91698616183727 -15.748900057103 18.9349673967877 31.1751553720943 0 0 0 0 0 25.4722267180552 -3.98913571946546 8.78942931539516 -12.8486299939633 0 0 -4.42234933595458 2.91315356236816 -5.72734224193778 -0.73991626054926 11.3547141569049 4.40975716625802 -29.4120103397472 0 0 8.51243367917446 -9.87943689913475 10.0256854896224 0 0 0 0 0 0
2.66386257112026 0 0.393494514375925 0 -0.289372494905912 0 0 17.0924067974091 0 -8.88580400605002 -4.02520811028814 -5.01408905708107 -0.607722256002402 -4.64039175584751 0.596873980311759 -1.68520306072017 1.540205363424 -3.45376180290215 -10.7436994651307 14.0739109858026 -8.0643364935797 10.0830437103429 0 0 0 0 0 5.43928133537729 -13.932202750826 17.3388310948003 29.7584785155852 0 0 0 0 0 23.4754333311459 -3.49625027666457 10.8530984293546 -13.2471143291993 0 0 -1.95445200496948 3.03377464435561 -5.80830207210561 3.46084722154443 10.4810485222637 7.29458050672966 -36.2889419093449 0 0 4.023998086591 -10.5423172306944 8.6199385818613 0 0 0 0 0 0
3.35234367847443 0 0.426511319726706 0 -0.494036750892903 0 0 17.1516764640808 0 -8.36585729951912 -3.84736779589573 -6.05758324031184 0.0390126835763839 -4.61725300770318 -0.34384574460751 -1.98519384722741 1.37436623644743 -4.2674275552469 -8.72022349093082 15.8264210756295 -8.26489857013534 10.5481650786688 0 0 0 0 0 3.69675092831694 -11.3633715077325 15.7201951260298 27.4557195105032 0 0 0 0 0 20.5805819946458 -3.27104559310493 11.8339541238106 -13.3196406929011 0 0 0.504243158031936 3.00438173027477 -5.70362125364999 8.58159510439036 8.56074255485072 9.89581748809554 -44.8080524459942 0 0 -1.23794049161568 -10.6493270661816 6.89785906764568 0 0 0 0 0 0
4.05789375901222 0 0.397754276543856 0 -0.635722767612541 0 0 17.231041431427 0 -7.40159699367983 -2.66963572306797 -6.3225743638843 0.661653682219013 -4.2848183908621 -1.90026150374801 -2.21156393136758 1.28954832050883 -4.908135520755 -5.91658946308277 17.7144152554838 -8.55237197824753 11.3422659234629 0 0 0 0 0 1.81380010923938 -8.4068764139231 14.4354806260149 24.1700057838498 0 0 0 0 0 16.7006440237939 -3.28957283960011 11.6169585799034 -12.5110743612185 0 0 2.65419530574383 2.7349229387015 -5.38034908892789 14.412235610765 6.091477081199 11.9420070162611 -53.594001398043 0 0 -7.3990806360659 -10.1749440455035 4.97086894464975 0 0 0 0 0 0
4.78305543214083 0 0.292439911514521 0 -0.687866720277403 0 0 17.3224545240402 0 -6.11189262802141 -0.98510474243841 -5.72294853685889 1.19391209214095 -3.42814189563882 -3.86258598699192 -2.51397064055554 1.27433429555815 -5.40596030492079 -2.59744797347925 19.8832150724346 -9.01096883579696 12.5195574561677 0 0 0 0 0 -0.234045970192566 -5.11890120888453 13.6036736204923 20.1680425623357 0 0 0 0 0 11.9829110956272 -3.38435918483998 10.3270275159841 -10.7900809875605 0 0 4.43949502975221 2.27837366029334 -4.82269582649116 20.6252241872054 3.78461114224708 13.2549261480258 -61.4542855477312 0 0 -11.8153361329901 -8.91772394263519 4.04071634091438 0 0 0 0 0 0
5.52539671212435 0 0.105991476401687 0 -0.644043162807702 0 0 17.4090689778328 0 -4.5748666317243 0.829995117276755 -4.31023276353791 1.44061648954985 -2.24236791561742 -5.95545394567936 -2.83127366086125 1.32897300636052 -5.70113495014963 1.04738131326152 22.377948965699 -9.59820382806736 14.1160527029556 0 0 0 0 0 -2.36931130865874 -1.6245057272445 13.2692278301368 15.9681609492421 0 0 0 0 0 6.62193850856163 -3.76858426175298 8.13514378305641 -8.35786343072365 0 0 5.92510416036044 1.87666921762274 -4.03653220239544 26.8911778718609 2.08660684894203 13.8172055690225 -67.336717668513 0 0 -13.0941617694704 -6.9358259193848 4.08950588583455 0 0 0 0 0 0
